<?xml version="1.0" standalone="no"?>
<!DOCTYPE svg PUBLIC "-//W3C//DTD SVG 20010904//EN"
        "http://www.w3.org/TR/2001/REC-SVG-20010904/DTD/svg10.dtd">
<svg xmlns="http://www.w3.org/2000/svg"
     width="512.000000pt" height="512.000000pt" viewBox="0 0 512.000000 512.000000"
     preserveAspectRatio="xMidYMid meet">
    <metadata>
        Created by potrace 1.14, written by Peter Selinger 2001-2017
    </metadata>
    <g transform="translate(0.000000,512.000000) scale(0.100000,-0.100000)"
       fill="#000000" stroke="none">
        <path d="M2290 4451 c-778 -120 -1394 -680 -1585 -1441 -144 -574 -7 -1196
366 -1660 370 -460 911 -720 1499 -720 411 0 773 116 1123 360 120 84 353 317
437 437 202 289 311 573 351 917 16 140 6 411 -21 556 -25 137 -90 338 -152
470 -47 100 -154 280 -167 280 -11 0 -318 -467 -426 -650 -334 -564 -630
-1198 -851 -1822 -40 -113 -77 -215 -83 -226 -16 -30 -86 -53 -181 -59 -146
-9 -163 0 -253 137 -249 378 -413 589 -650 839 -167 175 -187 202 -187 257 0
70 62 121 182 149 80 19 141 19 176 1 31 -17 172 -159 259 -262 129 -153 280
-374 366 -535 28 -54 55 -99 58 -99 3 0 27 62 53 137 287 818 724 1668 1185
2303 46 62 85 119 88 126 6 15 -145 140 -262 216 -384 250 -877 357 -1325 289z"/>
    </g>
</svg>
